<mxfile host="app.diagrams.net" modified="2024-04-29T08:46:19.154Z" agent="Mozilla/5.0 (Windows NT 10.0; Win64; x64) AppleWebKit/537.36 (KHTML, like Gecko) Chrome/124.0.0.0 Safari/537.36" etag="WuWVII8Bkvo5Yw_bOI4r" version="24.3.0" type="device">
  <diagram name="Page-1" id="efqULGjxS0yT6aLKpaFx">
    <mxGraphModel dx="2571" dy="924" grid="1" gridSize="10" guides="1" tooltips="1" connect="1" arrows="1" fold="1" page="1" pageScale="1" pageWidth="827" pageHeight="1169" math="0" shadow="0">
      <root>
        <mxCell id="0" />
        <mxCell id="1" parent="0" />
        <mxCell id="jUAt7vcdCTrA30Lvtl5n-25" value="" style="ellipse;whiteSpace=wrap;html=1;" parent="1" vertex="1">
          <mxGeometry x="220" y="415" width="210" height="110" as="geometry" />
        </mxCell>
        <mxCell id="jUAt7vcdCTrA30Lvtl5n-1" value="&lt;span style=&quot;font-size: 18px;&quot;&gt;Visiteur&lt;/span&gt;" style="shape=umlActor;verticalLabelPosition=bottom;verticalAlign=top;html=1;outlineConnect=0;" parent="1" vertex="1">
          <mxGeometry x="-160" y="585" width="30" height="60" as="geometry" />
        </mxCell>
        <mxCell id="jUAt7vcdCTrA30Lvtl5n-2" value="" style="rounded=0;whiteSpace=wrap;html=1;movable=1;resizable=1;rotatable=1;deletable=1;editable=1;locked=0;connectable=1;" parent="1" vertex="1">
          <mxGeometry x="40" y="100" width="780" height="1040" as="geometry" />
        </mxCell>
        <mxCell id="jUAt7vcdCTrA30Lvtl5n-3" value="&lt;font style=&quot;font-size: 19px;&quot;&gt;Appli Distopia&lt;/font&gt;" style="text;html=1;align=center;verticalAlign=middle;whiteSpace=wrap;rounded=0;fontSize=17;" parent="1" vertex="1">
          <mxGeometry x="340" y="120" width="270" height="30" as="geometry" />
        </mxCell>
        <mxCell id="jUAt7vcdCTrA30Lvtl5n-4" value="" style="ellipse;whiteSpace=wrap;html=1;" parent="1" vertex="1">
          <mxGeometry x="220" y="210" width="210" height="110" as="geometry" />
        </mxCell>
        <mxCell id="jUAt7vcdCTrA30Lvtl5n-5" value="afficher les villes" style="text;html=1;align=center;verticalAlign=middle;whiteSpace=wrap;rounded=0;fontSize=18;" parent="1" vertex="1">
          <mxGeometry x="270" y="240" width="125" height="50" as="geometry" />
        </mxCell>
        <mxCell id="jUAt7vcdCTrA30Lvtl5n-28" value="" style="ellipse;whiteSpace=wrap;html=1;" parent="1" vertex="1">
          <mxGeometry x="220" y="690" width="210" height="110" as="geometry" />
        </mxCell>
        <mxCell id="jUAt7vcdCTrA30Lvtl5n-29" value="accéder aux informations relative au cinéma" style="text;html=1;align=center;verticalAlign=middle;whiteSpace=wrap;rounded=0;fontSize=19;" parent="1" vertex="1">
          <mxGeometry x="270" y="707.5" width="110" height="75" as="geometry" />
        </mxCell>
        <mxCell id="jUAt7vcdCTrA30Lvtl5n-41" value="" style="endArrow=classic;html=1;rounded=0;exitX=0.5;exitY=0.5;exitDx=0;exitDy=0;exitPerimeter=0;entryX=0.007;entryY=0.548;entryDx=0;entryDy=0;entryPerimeter=0;" parent="1" source="jUAt7vcdCTrA30Lvtl5n-1" target="jUAt7vcdCTrA30Lvtl5n-4" edge="1">
          <mxGeometry width="50" height="50" relative="1" as="geometry">
            <mxPoint x="-185.88" y="563.22" as="sourcePoint" />
            <mxPoint x="219.99662902007924" y="286.7724650013995" as="targetPoint" />
            <Array as="points" />
          </mxGeometry>
        </mxCell>
        <mxCell id="jUAt7vcdCTrA30Lvtl5n-43" value="" style="endArrow=classic;html=1;rounded=0;exitX=0.5;exitY=0.5;exitDx=0;exitDy=0;exitPerimeter=0;entryX=-0.007;entryY=0.573;entryDx=0;entryDy=0;entryPerimeter=0;" parent="1" source="jUAt7vcdCTrA30Lvtl5n-1" target="jUAt7vcdCTrA30Lvtl5n-76" edge="1">
          <mxGeometry width="50" height="50" relative="1" as="geometry">
            <mxPoint x="-150" y="615" as="sourcePoint" />
            <mxPoint x="230" y="719" as="targetPoint" />
            <Array as="points" />
          </mxGeometry>
        </mxCell>
        <mxCell id="jUAt7vcdCTrA30Lvtl5n-76" value="&lt;span style=&quot;font-size: 19px;&quot;&gt;afficher les cinémas dans les villes&lt;/span&gt;" style="ellipse;whiteSpace=wrap;html=1;" parent="1" vertex="1">
          <mxGeometry x="220" y="370" width="210" height="110" as="geometry" />
        </mxCell>
        <mxCell id="jUAt7vcdCTrA30Lvtl5n-78" value="&lt;font style=&quot;font-size: 19px;&quot;&gt;recherche par mot clé un cinéma&lt;/font&gt;" style="ellipse;whiteSpace=wrap;html=1;" parent="1" vertex="1">
          <mxGeometry x="220" y="525" width="210" height="110" as="geometry" />
        </mxCell>
        <mxCell id="55ZJwuY2nLMgyWyhHw5j-1" value="" style="endArrow=classic;html=1;rounded=0;exitX=0.5;exitY=0.5;exitDx=0;exitDy=0;exitPerimeter=0;entryX=0.024;entryY=0.333;entryDx=0;entryDy=0;entryPerimeter=0;" parent="1" source="jUAt7vcdCTrA30Lvtl5n-1" target="jUAt7vcdCTrA30Lvtl5n-28" edge="1">
          <mxGeometry width="50" height="50" relative="1" as="geometry">
            <mxPoint x="-135" y="625" as="sourcePoint" />
            <mxPoint x="240" y="730" as="targetPoint" />
            <Array as="points" />
          </mxGeometry>
        </mxCell>
        <mxCell id="55ZJwuY2nLMgyWyhHw5j-3" value="" style="endArrow=classic;html=1;rounded=0;exitX=0.5;exitY=0.5;exitDx=0;exitDy=0;exitPerimeter=0;" parent="1" source="jUAt7vcdCTrA30Lvtl5n-1" target="jUAt7vcdCTrA30Lvtl5n-78" edge="1">
          <mxGeometry width="50" height="50" relative="1" as="geometry">
            <mxPoint x="-135" y="625" as="sourcePoint" />
            <mxPoint x="252" y="469" as="targetPoint" />
            <Array as="points" />
          </mxGeometry>
        </mxCell>
        <mxCell id="55ZJwuY2nLMgyWyhHw5j-4" value="&lt;font style=&quot;font-size: 19px;&quot;&gt;voir les différentes séances programmées par cinéma&lt;/font&gt;" style="ellipse;whiteSpace=wrap;html=1;" parent="1" vertex="1">
          <mxGeometry x="220" y="850" width="210" height="110" as="geometry" />
        </mxCell>
        <mxCell id="s62gWL5NL7S6fQ92SfMY-1" value="" style="endArrow=classic;html=1;rounded=0;" edge="1" parent="1" target="55ZJwuY2nLMgyWyhHw5j-4">
          <mxGeometry width="50" height="50" relative="1" as="geometry">
            <mxPoint x="-140" y="620" as="sourcePoint" />
            <mxPoint x="-20" y="800" as="targetPoint" />
            <Array as="points" />
          </mxGeometry>
        </mxCell>
      </root>
    </mxGraphModel>
  </diagram>
</mxfile>
